<svg xmlns="http://www.w3.org/2000/svg" width="40" height="51" fill="none" style=""><rect id="backgroundrect" width="100%" height="100%" x="0" y="0" fill="none" stroke="none"/>



<g class="currentLayer" style=""><title>Layer 1</title><path d="M25.781231999397278,42.29996527385711 C25.48033199939728,42.08826527385712 25.223631999397277,41.81296527385712 25.027131999397277,41.49106527385712 C24.83053199939728,41.16916527385712 24.69843199939728,40.80766527385712 24.638831999397276,40.428965273857116 C24.035231999397276,38.46846527385712 23.610131999397275,36.45066527385712 23.36943199939728,34.403465273857115 C23.23973199939728,32.519265273857116 23.223631999397277,30.628265273857117 23.321231999397277,28.741865273857115 C23.422831999397275,25.068865273857114 23.50283199939728,21.404165273857117 22.842431999397277,17.77086527385712 C22.676931999397276,16.91426527385712 22.44693199939728,16.073165273857114 22.154731999397278,15.255765273857115 C22.123631999397276,15.124865273857118 22.054131999397278,15.007965273857117 21.95633199939728,14.921965273857118 C21.85853199939728,14.836065273857116 21.73763199939728,14.785465273857113 21.61093199939728,14.777665273857117 C20.860631999397278,14.70666527385712 20.11543199939728,14.58296527385712 19.380331999397278,14.407265273857114 C18.24173199939728,14.044265273857114 17.21473199939728,13.364165273857118 16.405731999397275,12.437165273857119 C15.07623199939728,10.88346527385712 13.998231999397277,9.105665273857117 13.215431999397275,7.1762652738571155 C13.00323199939728,6.673565273857118 12.541231999397276,6.102165273857118 13.349631999397275,5.685065273857116 C13.352531999397279,4.436565273857116 14.155731999397275,4.722865273857117 14.850131999397277,4.7969652738571185 C15.060231999397281,4.839965273857118 15.277831999397279,4.8008652738571165 15.462931999397277,4.686665273857116 C15.64793199939728,4.572565273857116 15.78813199939728,4.391065273857116 15.857531999397281,4.175665273857117 C16.198131999397276,3.3923652738571164 16.345431999397277,3.3758652738571158 17.059631999397276,3.7870652738571167 C17.20363199939728,3.870065273857115 17.332931999397275,3.9827652738571153 17.47883199939728,4.061365273857117 C17.53403199939728,4.101765273857115 17.602031999397276,4.117365273857118 17.667931999397275,4.104865273857115 C17.733931999397285,4.092265273857116 17.792531999397276,4.052565273857116 17.831231999397275,3.9943652738571167 C18.227931999397278,3.2754652738571153 19.04203199939728,2.8286652738571156 18.960131999397277,1.784965273857118 C18.922631999397275,1.3064652738571176 18.909631999397277,0.5446652738571167 19.425831999397275,0.4139652738571158 C19.920131999397277,0.288865273857116 20.01113199939728,1.0468652738571151 20.28043199939728,1.4156652738571154 C20.33953199939728,1.4966652738571184 20.393531999397275,1.5818652738571153 20.50323199939728,1.743765273857118 C20.697231999397275,1.261865273857122 20.84353199939728,0.816965273857118 21.049831999397277,0.4061652738571162 C21.309431999397276,-0.11053472614288395 21.474431999397275,-0.13113472614288213 21.810031999397275,0.326565273857117 C21.994631999397278,0.5783652738571163 22.078931999397277,0.7119652738571176 22.419631999397275,0.5238652738571155 C22.584231999397275,0.4094652738571156 22.77293199939728,0.34046527385711656 22.96883199939728,0.32336527385711733 C23.164731999397276,0.30616527385711834 23.36153199939728,0.341365273857118 23.541431999397275,0.42566527385711694 C23.721431999397275,0.5098652738571161 23.878731999397274,0.640565273857117 23.999131999397278,0.8059652738571152 C24.119631999397278,0.9712652738571173 24.199431999397277,1.1659652738571182 24.231431999397287,1.3724652738571166 C24.97003199939728,3.919565273857117 25.225531999397276,6.597565273857118 24.98313199939728,9.250765273857116 C24.84203199939728,10.676865273857118 24.41253199939728,12.053665273857114 23.724231999397276,13.286365273857115 C23.52033199939728,13.641965273857117 23.24533199939728,13.945265273857117 22.918631999397277,14.17456527385712 C22.746931999397276,14.277565273857114 22.619331999397275,14.447365273857116 22.56273199939728,14.648265273857113 C22.50603199939728,14.849265273857114 22.524731999397275,15.065765273857117 22.614831999397275,15.252365273857116 C23.680531999397274,18.43096527385712 23.85153199939728,21.747865273857116 23.850731999397276,25.07886527385712 C23.850131999397277,27.35286527385712 23.764231999397275,29.626765273857117 23.735431999397278,31.900965273857118 C23.72953199939728,34.24886527385711 24.058131999397276,36.584065273857114 24.71003199939728,38.827065273857116 C24.996531999397277,40.00806527385712 25.354331999397274,41.168065273857124 25.781231999397278,42.29996527385711 zM21.476831999397277,13.739165273857118 C21.648031999397276,13.426965273857114 21.48573199939728,13.209165273857117 21.40183199939728,12.999365273857116 C20.44203199939728,10.547165273857118 19.34653199939728,8.15766527385712 18.12123199939728,5.843365273857117 C17.79223199939728,5.278165273857116 17.378131999397276,4.774565273857117 16.89533199939728,4.352765273857116 C16.638631999397276,4.1109652738571185 16.462231999397275,4.155065273857115 16.255331999397278,4.446665273857118 C15.531331999397281,5.467565273857115 15.523231999397275,5.460765273857117 16.17423199939728,6.540065273857117 C16.227431999397275,6.6281652738571175 16.27163199939728,6.722565273857118 16.32513199939728,6.810565273857115 C17.37353199939728,8.629265273857119 18.51713199939728,10.383865273857118 19.750331999397275,12.066165273857116 C20.258931999397277,12.697365273857116 20.83883199939728,13.259265273857118 21.476831999397277,13.739165273857118 H21.476831999397277 zM22.245031999397277,11.10566527385712 C21.692331999397275,7.772665273857118 21.298931999397276,4.379265273857115 19.62743199939728,1.2825652738571165 C19.255731999397277,1.8375652738571162 19.39493199939728,2.441765273857115 19.193431999397276,2.9476652738571154 C19.098431999397278,3.2100652738571185 19.062431999397276,3.4925652738571173 19.08843199939728,3.772465273857115 C19.11433199939728,4.0523652738571165 19.201531999397275,4.321865273857117 19.342831999397276,4.559465273857118 C20.415231999397278,6.679465273857115 21.358931999397278,8.861865273857116 22.245031999397277,11.10566527385712 H22.245031999397277 zM21.35383199939728,0.8775652738571154 C20.865331999397277,2.292565273857118 20.81273199939728,2.6193652738571167 21.16553199939728,3.6853652738571157 C21.89413199939728,6.001865273857117 22.42573199939728,8.38326527385712 22.754231999397277,10.800965273857116 C22.77953199939728,10.967865273857115 22.76633199939728,11.157765273857116 23.01483199939728,11.272065273857116 C23.02833199939728,10.315465273857114 23.317331999397275,9.416565273857117 23.19563199939728,8.461565273857115 C22.940231999397277,6.456165273857117 22.651531999397278,4.458265273857116 22.266231999397277,2.4756652738571177 C22.229431999397278,2.1556652738571174 22.12903199939727,1.8475652738571178 21.971731999397285,1.571965273857117 C21.81443199939728,1.296465273857116 21.603731999397276,1.059765273857117 21.35383199939728,0.8775652738571154 zM19.630031999397275,12.778465273857115 C19.181831999397275,12.149165273857115 18.72093199939728,11.52966527385712 18.288031999397276,10.888665273857114 C17.21533199939728,9.300065273857118 16.20853199939728,7.664465273857118 15.284031999397278,5.973365273857116 C15.090231999397275,5.618865273857118 14.88063199939728,5.333865273857118 14.461831999397276,5.338565273857117 C14.304731999397276,5.340265273857117 14.121131999397278,5.308865273857116 14.032731999397278,5.499865273857118 C13.965831999397281,5.644565273857118 14.058531999397275,5.7618652738571186 14.13063199939728,5.879765273857117 C14.890731999397275,7.226365273857116 15.728931999397275,8.521265273857118 16.64023199939728,9.757065273857116 C17.521531999397276,10.865865273857118 18.295531999397276,12.102265273857114 19.630031999397275,12.778465273857115 zM19.38513199939728,13.710365273857114 C18.76933199939728,12.901265273857113 17.95013199939728,12.35886527385712 17.36543199939728,11.552965273857119 C16.78553199939728,10.753865273857116 16.16333199939728,9.988165273857113 15.607631999397277,9.170865273857117 C15.051931999397276,8.353565273857118 14.553931999397278,7.491465273857116 14.03453199939728,6.646365273857118 C13.91723199939728,6.455565273857118 13.802531999397274,6.300465273857117 13.561731999397281,6.51286527385712 C14.331431999397275,8.999465273857115 15.74553199939728,11.203965273857115 17.641231999397277,12.872065273857118 C18.140831999397278,13.313865273857118 18.74343199939728,13.603565273857122 19.38513199939728,13.710365273857114 zM21.64023199939728,11.79336527385712 C21.091531999397276,8.981765273857118 19.70213199939728,6.562065273857115 18.60063199939728,3.9461652738571154 C18.496031999397275,4.020865273857115 18.406831999397276,4.117765273857117 18.33883199939728,4.230665273857117 C18.270731999397277,4.343565273857116 18.225131999397277,4.47016527385712 18.20483199939728,4.602565273857117 C18.18453199939728,4.734965273857117 18.190031999397277,4.870365273857118 18.22093199939728,5.000465273857117 C18.25173199939728,5.1305652738571155 18.30743199939728,5.252465273857116 18.384331999397276,5.3587652738571165 C19.202431999397277,6.7912652738571175 19.936531999397275,8.276165273857117 20.58243199939728,9.805165273857114 C20.83283199939728,10.523865273857119 21.18993199939728,11.195165273857114 21.64023199939728,11.79336527385712 zM23.775231999397278,8.511065273857117 C24.089831999397276,5.881465273857117 23.560031999397275,3.356565273857118 23.034831999397277,0.7389652738571151 C22.590431999397275,0.9874652738571186 22.44743199939728,1.2540652738571154 22.537631999397277,1.648165273857117 C23.05573199939728,3.9120652738571167 23.355831999397275,6.219665273857117 23.775231999397278,8.511065273857117 zM24.111231999397276,3.2566652738571165 C24.00323199939728,4.319965273857118 24.28773199939728,5.167265273857115 24.28553199939728,6.037365273857116 C24.28473199939728,6.352065273857118 24.280531999397276,6.666865273857116 24.27763199939728,6.981665273857118 C24.27463199939728,7.2962652738571165 24.27723199939728,7.611165273857118 24.266431999397277,7.925565273857117 C24.255731999397277,8.239865273857117 24.23913199939728,8.554365273857115 24.210931999397275,8.867365273857118 C24.182731999397276,9.180465273857116 24.135231999397277,9.49156527385712 24.09933199939728,9.803965273857116 C24.06363199939728,10.11486527385712 24.00883199939728,10.425665273857113 23.97393199939728,10.732265273857116 C23.929331999397277,11.123965273857117 23.547231999397276,10.782365273857117 23.51803199939728,11.030165273857115 C23.408331999397276,11.54336527385712 23.365531999397277,12.070265273857117 23.390731999397275,12.595865273857115 C24.828531999397278,11.149265273857118 25.02743199939728,5.981465273857118 24.111231999397276,3.2566652738571165 z" fill="#60C4C7" id="svg_1" class=""/><path d="M29.22373199939728,11.112365273857115 C29.32453199939728,10.946565273857118 29.387331999397276,10.827065273857116 29.46493199939728,10.718565273857116 C29.94523199939728,10.046965273857118 30.039531999397276,10.030165273857115 30.575531999397278,10.650765273857118 C30.791631999397275,10.900865273857114 30.952631999397276,11.042465273857118 31.219331999397276,10.741265273857117 C31.25023199939728,10.699665273857114 31.289731999397276,10.665265273857116 31.335131999397277,10.640665273857117 C31.38043199939728,10.615965273857114 31.430531999397274,10.601665273857115 31.481931999397275,10.598665273857115 C31.533331999397276,10.595565273857119 31.584731999397277,10.603965273857114 31.632631999397276,10.623065273857115 C31.680531999397274,10.642165273857117 31.72373199939728,10.67156527385712 31.75923199939728,10.709365273857117 C32.18873199939728,11.062265273857115 32.331031999397275,10.726565273857119 32.503531999397275,10.408965273857113 C32.82243199939728,9.771165273857115 33.252231999397274,9.196765273857118 33.77233199939728,8.713065273857115 C34.37483199939728,9.332365273857114 34.355231999397276,10.140165273857114 34.62443199939728,10.84816527385712 C35.04663199939728,10.727165273857118 35.20243199939728,10.350965273857113 35.454731999397275,10.090165273857117 C35.92853199939728,9.600265273857119 36.000131999397276,9.602565273857117 36.27233199939728,10.194565273857116 C36.301031999397274,10.256865273857116 36.32173199939728,10.322965273857115 36.345231999397285,10.387665273857117 C36.47753199939728,10.75226527385712 36.64363199939728,10.838565273857114 37.03193199939728,10.628465273857117 C37.967831999397276,10.134365273857114 38.75553199939728,9.395265273857113 39.31273199939727,8.488265273857117 C39.38283199939728,8.374365273857116 39.454531999397275,8.248665273857117 39.60963199939728,8.225065273857115 C39.91123199939727,8.277365273857118 39.832531999397276,8.523165273857117 39.83903199939728,8.710965273857116 C39.891031999397285,10.209165273857117 39.49893199939727,11.64996527385712 39.255431999397274,13.107865273857115 C38.967631999397284,15.295465273857118 38.37913199939727,17.431765273857117 37.50703199939728,19.454665273857117 C37.096031999397276,20.448465273857117 36.35683199939728,21.26726527385712 35.41563199939728,21.771265273857118 C34.761331999397285,22.04226527385712 34.19793199939728,22.49796527385712 33.79263199939728,23.084065273857114 C33.38743199939728,23.670165273857116 33.157431999397275,24.36186527385712 33.130231999397274,25.076665273857117 C32.94843199939728,26.27026527385712 32.607131999397275,27.433465273857117 32.11583199939728,28.534265273857116 C30.368531999397277,33.08866527385712 29.85043199939728,38.031465273857116 30.614931999397278,42.85536527385712 C30.845131999397275,44.39276527385712 31.23573199939728,45.88546527385712 31.607831999397277,47.38646527385711 C31.767431999397274,47.94936527385711 31.987931999397276,48.49276527385712 32.26543199939728,49.006665273857124 C32.27993199939728,49.05326527385712 32.28323199939728,49.10266527385711 32.275131999397274,49.15076527385712 C32.267031999397275,49.19886527385712 32.24763199939728,49.24436527385711 32.21873199939728,49.28346527385712 C32.10183199939728,49.41146527385712 31.972931999397275,49.333465273857115 31.873231999397277,49.230265273857114 C31.610131999397275,48.91106527385712 31.424831999397277,48.533765273857114 31.332531999397276,48.128865273857116 C30.28433199939728,44.87786527385711 29.77683199939728,41.473465273857116 29.83093199939728,38.054365273857115 C29.87993199939728,34.63626527385712 30.528431999397277,31.254065273857115 31.74623199939728,28.065365273857118 C32.34583199939728,26.674165273857113 32.74493199939728,25.203065273857113 32.93113199939728,23.697165273857117 C33.00513199939728,22.779365273857117 33.00133199939728,22.79396527385712 32.15623199939728,22.623765273857117 C30.49873199939728,22.289865273857117 29.29413199939728,21.40976527385712 28.759331999397276,19.71736527385712 C28.36323199939728,18.506165273857114 28.102231999397276,17.253865273857116 27.981131999397277,15.983965273857116 C27.84743199939728,13.955865273857114 27.54373199939728,11.942865273857116 27.073531999397275,9.966665273857117 C27.015531999397275,9.743165273857116 26.82863199939728,9.479765273857119 27.084031999397276,9.308165273857117 C27.38513199939728,9.105865273857116 27.579331999397276,9.414165273857115 27.778831999397276,9.576465273857117 C28.071431999397277,9.81496527385712 28.317831999397278,10.106365273857115 28.505331999397278,10.435865273857118 C28.57493199939728,10.591065273857119 28.67423199939728,10.730765273857116 28.79753199939728,10.84686527385712 C28.92083199939728,10.963065273857119 29.065631999397276,11.053265273857122 29.22373199939728,11.112365273857115 zM34.20353199939728,21.582265273857118 C34.77093199939728,21.500865273857116 35.30673199939728,21.268465273857117 35.75623199939728,20.908865273857117 C36.919231999397276,20.02026527385712 37.34703199939728,18.706165273857117 37.79343199939728,17.414465273857118 C38.558831999397285,15.199665273857114 38.79243199939728,12.861665273857113 39.24483199939728,10.574665273857114 C39.30673199939727,10.418465273857116 39.328931999397284,10.249165273857116 39.309431999397276,10.082065273857118 C39.29003199939727,9.914965273857113 39.22943199939728,9.755565273857115 39.133331999397285,9.61826527385712 C38.708031999397285,10.05576527385712 38.10363199939728,10.348065273857117 38.07883199939728,11.03136527385712 C37.98973199939728,13.48556527385712 37.03793199939728,15.704665273857117 36.285031999397276,17.97786527385712 C36.10923199939728,18.499165273857116 35.86513199939728,18.994165273857114 35.55923199939728,19.449665273857114 C35.09383199939728,20.151365273857117 34.65413199939728,20.870465273857114 34.20353199939728,21.582265273857118 H34.20353199939728 zM27.953531999397278,10.531265273857116 C27.88553199939728,10.56606527385712 27.832931999397275,10.625365273857113 27.80613199939728,10.697565273857116 C27.779431999397275,10.769765273857118 27.780531999397276,10.849465273857113 27.80933199939728,10.920865273857117 C28.27743199939728,13.147965273857118 28.348131999397275,15.429565273857115 28.710931999397275,17.66856527385712 C28.91933199939728,18.954465273857117 29.24773199939728,20.23746527385712 30.266231999397277,21.177065273857117 C30.43883199939728,21.370565273857117 30.652531999397276,21.52196527385712 30.89133199939728,21.619865273857116 C31.130031999397275,21.717665273857115 31.38763199939728,21.759465273857117 31.64473199939728,21.742065273857115 C30.634331999397276,20.18206527385712 30.20403199939728,18.52236527385712 29.74323199939728,16.86866527385712 C29.433631999397278,15.457465273857117 29.224231999397276,14.025665273857115 29.11673199939728,12.584165273857117 C28.998831999397275,11.775965273857118 28.58333199939728,11.042665273857118 27.953531999397278,10.531265273857116 L27.953531999397278,10.531265273857116 zM33.07393199939728,20.586265273857116 C33.43363199939728,19.922265273857114 33.65063199939728,19.188865273857118 33.710531999397276,18.434065273857115 C34.088331999397276,16.049865273857115 33.91353199939728,13.633865273857118 34.120431999397276,11.239565273857117 C34.15093199939728,10.860765273857119 34.100931999397275,10.47956527385712 33.97363199939728,10.121865273857118 C33.85083199939728,9.772565273857118 33.660031999397276,9.652565273857114 33.39983199939728,9.971065273857114 C32.76163199939728,10.752565273857115 32.213531999397276,11.570665273857117 32.46253199939728,12.677065273857117 C32.517231999397275,12.981165273857115 32.55003199939728,13.288965273857116 32.56083199939728,13.597865273857117 C32.74023199939728,15.921465273857116 33.02393199939728,18.237765273857114 33.07393199939728,20.586265273857116 L33.07393199939728,20.586265273857116 zM33.352231999397276,21.975765273857114 C33.72083199939728,21.678065273857115 33.71883199939728,21.677265273857117 33.776031999397276,21.52386527385712 C34.75533199939728,18.91516527385712 35.46453199939728,16.210665273857117 35.892431999397274,13.453965273857115 C36.06823199939728,12.648965273857115 36.11223199939728,11.820265273857117 36.02263199939728,11.000865273857116 C35.93973199939728,10.52046527385712 35.70833199939728,10.447765273857115 35.419231999397276,10.797565273857117 C34.85943199939728,11.474765273857116 34.22203199939728,12.12276527385712 34.39303199939728,13.151065273857114 C34.43473199939728,13.562665273857107 34.43513199939728,13.977565273857124 34.39413199939728,14.389365273857116 C34.29883199939728,16.865965273857114 34.24503199939728,19.349365273857117 33.30723199939728,21.698165273857114 C33.269831999397276,21.791765273857116 33.242631999397275,21.899265273857118 33.352231999397276,21.975765273857114 L33.352231999397276,21.975765273857114 zM32.36853199939728,20.34816527385712 C32.52423199939728,20.10756527385712 32.580631999397276,19.81476527385712 32.52543199939728,19.53266527385712 C32.495631999397276,17.43696527385712 32.28133199939728,15.353865273857117 32.105031999397276,13.267865273857119 C32.06633199939728,12.789065273857119 31.97803199939728,12.315765273857117 31.84163199939728,11.85566527385712 C31.784631999397277,11.66536527385712 31.743531999397277,11.426665273857118 31.508531999397277,11.385365273857118 C31.243331999397277,11.338765273857113 31.07153199939728,11.554965273857114 30.909831999397277,11.716465273857118 C30.691031999397275,11.934865273857113 30.774931999397275,12.23086527385712 30.79883199939728,12.501565273857118 C30.868331999397277,13.83916527385712 31.02893199939728,15.170465273857118 31.27953199939728,16.48576527385712 C31.50813199939728,17.808165273857114 31.87313199939728,19.10266527385712 32.36853199939728,20.34816527385712 zM32.21143199939728,21.50226527385712 C31.52933199939728,19.67606527385712 31.02723199939728,17.78606527385712 30.712431999397275,15.859965273857114 C30.497531999397275,14.535965273857116 30.47203199939728,13.193565273857118 30.365331999397277,11.858965273857116 C30.341931999397275,11.56756527385712 30.50453199939728,11.01126527385712 30.034831999397277,11.03096527385712 C29.66333199939728,11.046465273857116 29.615031999397274,11.589465273857115 29.50153199939728,11.939165273857114 C29.488131999397275,12.041065273857114 29.495131999397287,12.144665273857115 29.52213199939728,12.243765273857122 C29.681631999397275,13.917265273857119 29.950731999397277,15.578365273857116 30.32773199939728,17.215765273857116 C30.718731999397278,18.74136527385712 31.151931999397277,20.262465273857117 32.21143199939728,21.50226527385712 H32.21143199939728 zM37.572031999397275,11.004265273857115 C37.246031999397275,11.086265273857116 36.955631999397276,11.274265273857118 36.745431999397276,11.539365273857115 C36.535231999397276,11.804565273857115 36.416831999397274,12.132165273857119 36.40843199939728,12.47186527385712 C36.19543199939728,14.070365273857114 35.95783199939728,15.665965273857118 35.593031999397276,17.23856527385712 C35.41283199939728,17.76936527385712 35.28813199939728,18.317665273857116 35.221031999397276,18.874765273857115 C36.10423199939728,17.945465273857117 37.565431999397276,13.056065273857115 37.572031999397275,11.004265273857115 z" fill="#60C4C7" id="svg_2" class=""/><path d="M11.177831999397277,13.364565273857117 C11.220231999397278,12.986765273857117 11.331431999397275,12.620265273857115 11.50583199939728,12.283465273857118 C11.62483199939728,12.05426527385712 11.681731999397279,11.693165273857119 12.036931999397275,11.757565273857118 C12.338331999397276,11.812165273857119 12.270631999397281,12.129065273857115 12.305231999397279,12.35756527385712 C12.65073199939728,14.360165273857113 13.163331999397279,16.329465273857117 13.837431999397275,18.244165273857114 C14.225331999397277,19.45816527385712 14.478131999397277,20.712265273857113 14.59103199939728,21.983065273857115 C14.765931999397274,23.751265273857115 14.008031999397275,25.043865273857115 12.620831999397275,26.01766527385712 C11.913431999397275,26.51426527385712 11.904331999397279,26.502365273857116 12.332531999397276,27.314665273857116 C13.094731999397276,28.62146527385712 14.03813199939728,29.810565273857115 15.133931999397277,30.845665273857115 C17.502131999397278,33.281065273857116 19.42473199939728,36.123265273857115 20.81233199939728,39.239765273857124 C22.20483199939728,42.355265273857114 23.07733199939728,45.68326527385712 23.394031999397278,49.08826527385712 C23.46853199939728,49.49706527385712 23.447031999397275,49.91786527385712 23.33133199939728,50.31666527385711 C23.280531999397276,50.45146527385711 23.193031999397277,50.57496527385712 23.035731999397285,50.50456527385711 C22.99383199939728,50.48036527385712 22.958231999397277,50.446465273857115 22.93193199939728,50.40556527385712 C22.905531999397276,50.36466527385711 22.889231999397275,50.31796527385711 22.88423199939728,50.26946527385712 C22.936531999397275,49.686165273857114 22.92513199939728,49.09876527385711 22.850131999397277,48.517965273857115 C22.60153199939728,46.990965273857114 22.37293199939728,45.46396527385711 21.97993199939728,43.96066527385712 C20.785431999397275,39.226665273857115 18.36923199939728,34.89996527385712 14.979431999397278,31.424665273857116 C14.09703199939728,30.61246527385712 13.32753199939728,29.68266527385712 12.691931999397276,28.66066527385712 C12.386331999397278,28.01576527385712 11.90393199939728,27.473665273857115 11.302431999397278,27.099065273857114 C10.70103199939728,26.724465273857113 10.00583199939728,26.533165273857115 9.300031999397277,26.54806527385712 C8.239831999397275,26.46456527385712 7.241031999397279,26.010965273857117 6.474031999397276,25.264565273857116 C4.880431999397278,23.759565273857113 3.502231999397278,22.036465273857118 2.379231999397277,20.145065273857114 C1.583431999397277,18.905565273857114 0.6583319993972765,17.74136527385712 0.11743199939727944,16.345665273857115 C0.04973199939727735,16.170865273857117 -0.11896800060272028,15.976965273857118 0.13683199939727686,15.807565273857115 C0.20443199939727918,15.797165273857118 0.27343199939727825,15.802865273857115 0.3385319993972793,15.82396527385712 C0.4036319993972768,15.84516527385712 0.4630319993972769,15.881165273857114 0.5121319993972762,15.929465273857119 C1.3789319993972775,16.537265273857116 2.390831999397278,16.898265273857113 3.442231999397279,16.974765273857116 C3.880631999397277,17.011165273857117 3.9988319993972787,16.865165273857116 3.9768319993972767,16.477365273857117 C3.9729319993972787,16.408465273857118 3.9659319993972773,16.339465273857115 3.9677319993972766,16.270765273857116 C3.9845319993972765,15.617965273857116 4.0492319993972785,15.587065273857114 4.675731999397279,15.845765273857118 C5.009231999397279,15.983465273857114 5.299831999397277,16.265865273857116 5.7341319993972775,16.20686527385712 C5.7025319993972765,15.448865273857116 5.367331999397276,14.715565273857116 5.676031999397278,13.90466527385712 C6.342431999397277,14.139065273857113 6.961831999397276,14.493165273857116 7.504531999397283,14.949965273857117 C7.787331999397281,15.171865273857115 8.049531999397281,15.422565273857117 8.30443199939728,14.925765273857117 C8.322031999397275,14.876865273857113 8.350031999397281,14.832465273857117 8.386431999397281,14.795665273857118 C8.422831999397275,14.758765273857115 8.46663199939728,14.730465273857114 8.514931999397277,14.712565273857116 C8.563131999397278,14.694665273857119 8.614731999397279,14.687665273857107 8.66593199939728,14.691965273857122 C8.717131999397274,14.696265273857115 8.766831999397276,14.711965273857118 8.811531999397275,14.737665273857118 C9.174131999397275,14.906665273857115 9.266031999397278,14.711865273857114 9.365731999397276,14.395365273857117 C9.613031999397279,13.610165273857113 9.70593199939728,13.587565273857116 10.40973199939728,14.010365273857118 C10.523531999397278,14.07866527385712 10.627931999397276,14.163065273857114 10.785531999397278,14.274565273857114 C10.907031999397276,14.156665273857115 11.00433199939728,14.015565273857113 11.071631999397276,13.859365273857115 C11.139031999397275,13.703165273857124 11.17513199939728,13.535065273857114 11.177831999397277,13.364565273857117 zM8.256531999397275,24.475665273857118 C7.797331999397279,24.180865273857115 7.379231999397277,23.824965273857117 7.013431999397277,23.41746527385712 C5.430731999397278,21.63496527385712 3.687131999397277,19.981965273857114 2.641431999397277,17.766065273857116 C2.3503319993972767,17.14906527385712 1.6818319993972786,17.12426527385712 1.1203319993972762,16.894065273857116 C1.0862319993972775,17.058665273857116 1.0934319993972785,17.22936527385712 1.1412319993972773,17.390565273857113 C1.1890319993972795,17.551665273857118 1.2759319993972795,17.698165273857114 1.393931999397278,17.81646527385712 C2.7067319993972774,19.73276527385712 3.839131999397278,21.783865273857117 5.410331999397279,23.507965273857117 C6.326631999397279,24.51336527385712 7.234731999397276,25.546865273857115 8.649131999397277,25.893865273857116 C9.202231999397277,26.042865273857117 9.784331999397281,26.040265273857116 10.336131999397281,25.88646527385712 C9.643731999397275,25.414965273857113 8.95853199939728,24.93206527385712 8.256531999397275,24.475665273857118 H8.256531999397275 zM11.461631999397277,15.581965273857115 C11.92943199939728,16.94786527385712 12.300031999397277,18.345965273857118 12.570731999397275,19.765465273857117 C12.798131999397278,21.46846527385712 13.05593199939728,23.164465273857118 12.743031999397274,25.002765273857115 C12.985431999397278,24.915265273857116 13.205031999397278,24.773165273857117 13.38533199939728,24.587265273857113 C13.56553199939728,24.401265273857113 13.701931999397274,24.176365273857115 13.783931999397275,23.92926527385712 C14.347931999397275,22.656965273857118 14.14473199939728,21.347565273857114 13.830631999397276,20.083865273857114 C13.283531999397276,17.88326527385712 12.452031999397278,15.761365273857116 12.00603199939728,13.529365273857124 C12.00433199939728,13.452265273857115 11.974031999397276,13.378665273857116 11.921231999397278,13.323165273857114 C11.868331999397277,13.267765273857115 11.796831999397277,13.234465273857118 11.720831999397276,13.229965273857118 C11.344731999397276,13.952765273857118 11.252131999397278,14.792865273857117 11.461631999397277,15.581965273857115 H11.461631999397277 zM8.704731999397275,17.89886527385712 C8.593231999397275,17.611165273857118 8.502431999397281,17.315565273857118 8.43303199939728,17.014565273857116 C8.226531999397281,15.899065273857119 7.403031999397278,15.369165273857114 6.511431999397281,14.909065273857117 C6.148031999397279,14.721565273857117 6.020331999397278,14.908465273857118 6.045031999397278,15.278465273857115 C6.068931999397279,15.657965273857116 6.172831999397278,16.027765273857113 6.3495319993972785,16.363165273857113 C7.479631999397277,18.47676527385712 8.268531999397275,20.763965273857117 9.551231999397281,22.79936527385712 C9.902531999397276,23.46776527385712 10.389331999397278,24.053365273857118 10.97973199939728,24.517765273857115 C10.103031999397281,22.34276527385712 9.453131999397279,20.103165273857115 8.704731999397275,17.89886527385712 H8.704731999397275 zM11.202831999397276,25.63196527385712 C9.421031999397279,23.85436527385712 8.39623199939728,21.597465273857118 7.336131999397281,19.36336527385712 C7.13683199939728,19.00206527385712 6.974231999397276,18.62126527385712 6.850731999397276,18.226665273857115 C6.60343199939728,17.21436527385712 5.7650319993972765,16.876465273857114 4.986131999397276,16.480465273857114 C4.583931999397279,16.275965273857118 4.400531999397277,16.435865273857118 4.513231999397277,16.910065273857114 C4.75303199939728,17.697965273857115 5.118831999397276,18.440665273857114 5.596131999397279,19.108465273857114 C7.070931999397281,21.46566527385712 8.78303199939728,23.661465273857118 10.704831999397278,25.66086527385712 C10.817531999397275,25.77856527385712 10.816031999397275,25.78006527385712 11.270631999397281,25.90486527385712 C11.340931999397277,25.790465273857116 11.27383199939728,25.702765273857118 11.202831999397276,25.63196527385712 H11.202831999397276 zM11.012931999397281,20.032765273857116 C10.725831999397279,18.724965273857116 10.350031999397281,17.438865273857118 9.888231999397277,16.18356527385712 C9.803831999397275,15.925565273857117 9.764331999397278,15.620165273857118 9.478131999397277,15.507865273857114 C9.26653199939728,15.424865273857115 9.02423199939728,15.295565273857115 8.799631999397278,15.445165273857114 C8.600531999397276,15.577765273857118 8.65673199939728,15.81326527385712 8.679231999397281,16.010765273857118 C8.735031999397279,16.487865273857118 8.840031999397276,16.95776527385712 8.992631999397275,17.41256527385712 C9.650431999397277,19.39756527385712 10.272431999397277,21.395265273857113 11.068431999397276,23.33016527385712 C11.128631999397278,23.611265273857114 11.29523199939728,23.857265273857116 11.532431999397275,24.015265273857118 C11.49703199939728,22.672965273857116 11.322931999397277,21.338265273857118 11.012931999397281,20.032765273857116 H11.012931999397281 zM12.171631999397277,20.319365273857116 C11.873731999397279,18.665065273857124 11.467831999397276,17.03266527385712 10.956631999397281,15.432865273857118 C10.942431999397279,15.331065273857114 10.908131999397277,15.233165273857118 10.855831999397275,15.145065273857114 C10.614431999397276,14.869965273857119 10.35683199939728,14.39116527385712 10.01053199939728,14.52646527385712 C9.572431999397281,14.697565273857116 9.939831999397278,15.14246527385712 10.03303199939728,15.419365273857117 C10.459431999397275,16.686865273857116 10.96343199939728,17.92886527385712 11.286531999397276,19.230165273857118 C11.754831999397275,21.12426527385712 12.037231999397278,23.06066527385712 12.129631999397276,25.010965273857117 C12.613331999397275,23.446765273857118 12.412631999397277,21.876665273857114 12.171631999397277,20.319365273857116 H12.171631999397277 zM8.340431999397275,23.81196527385712 C8.060131999397278,23.327865273857114 7.730531999397279,22.874965273857114 7.3569319993972755,22.460565273857114 C6.405031999397281,21.164465273857118 5.560631999397277,19.796065273857117 4.737631999397276,18.41516527385712 C4.596431999397279,18.106765273857114 4.359331999397277,17.853865273857117 4.062631999397279,17.695265273857117 C3.765931999397278,17.536665273857118 3.426031999397278,17.48106527385712 3.095131999397278,17.53716527385712 C3.9071319993972793,19.41706527385712 7.166331999397279,23.314865273857116 8.340431999397275,23.81196527385712 z" fill="#60C4C7" id="svg_3" class=""/></g></svg>